<svg xmlns="http://www.w3.org/2000/svg" xmlns:xlink="http://www.w3.org/1999/xlink" width="1000" zoomAndPan="magnify" viewBox="0 0 750 149.999998" height="200" preserveAspectRatio="xMidYMid meet" version="1.2"><defs><clipPath id="4dcdb5c2e0"><rect x="0" width="734" y="0" height="126"/></clipPath><clipPath id="445323386f"><rect x="0" width="83" y="0" height="150"/></clipPath></defs><g id="d382895d5c"><g transform="matrix(1,0,0,1,14,19)"><g clip-path="url(#4dcdb5c2e0)"><g style="fill:#4255ff;fill-opacity:1;"><g transform="translate(1.000005, 89.518202)"><path style="stroke:none" d="M 74.3125 0 L 70.40625 -48.96875 L 69.90625 -48.96875 L 52.984375 -0.5 L 41.765625 -0.5 L 24.84375 -48.96875 L 24.34375 -48.96875 L 20.4375 0 L 1.609375 0 L 9.015625 -82.625 L 29.046875 -82.625 L 47.375 -34.953125 L 65.703125 -82.625 L 85.734375 -82.625 L 93.140625 0 Z M 74.3125 0 "/></g></g><g style="fill:#4255ff;fill-opacity:1;"><g transform="translate(95.733882, 89.518202)"><path style="stroke:none" d="M 44.96875 -51.375 L 65.40625 -51.375 L 25.046875 26.046875 L 4.609375 26.046875 L 22.328125 -8.015625 L -2 -51.375 L 18.421875 -51.375 L 32.75 -25.046875 Z M 44.96875 -51.375 "/></g></g><g style="fill:#4255ff;fill-opacity:1;"><g transform="translate(159.127839, 89.518202)"><path style="stroke:none" d=""/></g></g><g style="fill:#4255ff;fill-opacity:1;"><g transform="translate(186.466477, 89.518202)"><path style="stroke:none" d=""/></g></g><g style="fill:#4255ff;fill-opacity:1;"><g transform="translate(213.805115, 89.518202)"><path style="stroke:none" d=""/></g></g><g style="fill:#4255ff;fill-opacity:1;"><g transform="translate(241.159103, 89.518202)"><path style="stroke:none" d="M 6.015625 0 L 6.015625 -86.140625 L 23.734375 -86.140625 L 23.734375 0 Z M 6.015625 0 "/></g></g><g style="fill:#4255ff;fill-opacity:1;"><g transform="translate(270.901133, 89.518202)"><path style="stroke:none" d="M 9.5 -6.359375 C 4.695312 -11.597656 2.296875 -18.023438 2.296875 -25.640625 C 2.296875 -33.253906 4.695312 -39.695312 9.5 -44.96875 C 14.3125 -50.238281 20.425781 -52.875 27.84375 -52.875 C 34.65625 -52.875 40.265625 -50.738281 44.671875 -46.46875 L 44.671875 -51.375 L 62.390625 -51.375 L 62.390625 0 L 44.875 0 L 44.875 -5.8125 L 44.671875 -5.8125 C 40.265625 -0.9375 34.65625 1.5 27.84375 1.5 C 20.425781 1.5 14.3125 -1.117188 9.5 -6.359375 Z M 24.59375 -34.359375 C 22.289062 -32.085938 21.140625 -29.179688 21.140625 -25.640625 C 21.140625 -22.097656 22.238281 -19.207031 24.4375 -16.96875 C 26.644531 -14.738281 29.550781 -13.625 33.15625 -13.625 C 36.625 -13.625 39.476562 -14.757812 41.71875 -17.03125 C 43.957031 -19.300781 45.078125 -22.171875 45.078125 -25.640625 C 45.078125 -29.179688 43.921875 -32.085938 41.609375 -34.359375 C 39.304688 -36.628906 36.488281 -37.765625 33.15625 -37.765625 C 29.75 -37.765625 26.894531 -36.628906 24.59375 -34.359375 Z M 24.59375 -34.359375 "/></g></g><g style="fill:#4255ff;fill-opacity:1;"><g transform="translate(339.297796, 89.518202)"><path style="stroke:none" d="M 28.34375 -52.875 C 31.28125 -52.875 34.179688 -52.539062 37.046875 -51.875 C 39.921875 -51.207031 42.0625 -50.539062 43.46875 -49.875 L 45.578125 -48.875 L 39.765625 -37.265625 C 35.753906 -39.398438 31.945312 -40.46875 28.34375 -40.46875 C 26.34375 -40.46875 24.921875 -40.25 24.078125 -39.8125 C 23.242188 -39.375 22.828125 -38.554688 22.828125 -37.359375 C 22.828125 -37.085938 22.859375 -36.816406 22.921875 -36.546875 C 22.992188 -36.285156 23.128906 -36.035156 23.328125 -35.796875 C 23.535156 -35.566406 23.722656 -35.367188 23.890625 -35.203125 C 24.054688 -35.035156 24.335938 -34.851562 24.734375 -34.65625 C 25.140625 -34.457031 25.457031 -34.304688 25.6875 -34.203125 C 25.925781 -34.097656 26.3125 -33.945312 26.84375 -33.75 C 27.375 -33.550781 27.769531 -33.398438 28.03125 -33.296875 C 28.300781 -33.203125 28.753906 -33.050781 29.390625 -32.84375 C 30.023438 -32.644531 30.507812 -32.515625 30.84375 -32.453125 C 32.914062 -31.847656 34.71875 -31.175781 36.25 -30.4375 C 37.789062 -29.707031 39.410156 -28.707031 41.109375 -27.4375 C 42.816406 -26.175781 44.132812 -24.578125 45.0625 -22.640625 C 46 -20.703125 46.46875 -18.5 46.46875 -16.03125 C 46.46875 -4.34375 38.359375 1.5 22.140625 1.5 C 18.460938 1.5 14.96875 0.929688 11.65625 -0.203125 C 8.351562 -1.335938 5.96875 -2.472656 4.5 -3.609375 L 2.296875 -5.40625 L 9.515625 -17.53125 C 10.046875 -17.0625 10.742188 -16.507812 11.609375 -15.875 C 12.484375 -15.238281 14.054688 -14.367188 16.328125 -13.265625 C 18.597656 -12.171875 20.566406 -11.625 22.234375 -11.625 C 25.910156 -11.625 27.75 -12.859375 27.75 -15.328125 C 27.75 -16.460938 27.28125 -17.34375 26.34375 -17.96875 C 25.40625 -18.601562 23.816406 -19.320312 21.578125 -20.125 C 19.347656 -20.925781 17.597656 -21.660156 16.328125 -22.328125 C 13.117188 -24.003906 10.578125 -25.894531 8.703125 -28 C 6.835938 -30.101562 5.90625 -32.890625 5.90625 -36.359375 C 5.90625 -41.566406 7.925781 -45.617188 11.96875 -48.515625 C 16.007812 -51.421875 21.46875 -52.875 28.34375 -52.875 Z M 28.34375 -52.875 "/></g></g><g style="fill:#4255ff;fill-opacity:1;"><g transform="translate(388.567423, 89.518202)"><path style="stroke:none" d="M 6.015625 0 L 6.015625 -86.140625 L 23.734375 -86.140625 L 23.734375 -45.96875 L 23.9375 -45.96875 C 28.539062 -50.570312 33.445312 -52.875 38.65625 -52.875 C 41.195312 -52.875 43.71875 -52.539062 46.21875 -51.875 C 48.726562 -51.207031 51.132812 -50.171875 53.4375 -48.765625 C 55.738281 -47.367188 57.609375 -45.382812 59.046875 -42.8125 C 60.484375 -40.238281 61.203125 -37.253906 61.203125 -33.859375 L 61.203125 0 L 43.46875 0 L 43.46875 -29.046875 C 43.46875 -31.710938 42.613281 -34.046875 40.90625 -36.046875 C 39.207031 -38.054688 36.988281 -39.0625 34.25 -39.0625 C 31.582031 -39.0625 29.160156 -38.023438 26.984375 -35.953125 C 24.816406 -33.878906 23.734375 -31.578125 23.734375 -29.046875 L 23.734375 0 Z M 6.015625 0 "/></g></g><g style="fill:#4255ff;fill-opacity:1;"><g transform="translate(454.760966, 89.518202)"><path style="stroke:none" d="M 9.5 -6.359375 C 4.695312 -11.597656 2.296875 -18.023438 2.296875 -25.640625 C 2.296875 -33.253906 4.695312 -39.695312 9.5 -44.96875 C 14.3125 -50.238281 20.425781 -52.875 27.84375 -52.875 C 34.65625 -52.875 40.265625 -50.738281 44.671875 -46.46875 L 44.671875 -86.140625 L 62.390625 -86.140625 L 62.390625 0 L 44.875 0 L 44.875 -5.8125 L 44.671875 -5.8125 C 40.265625 -0.9375 34.65625 1.5 27.84375 1.5 C 20.425781 1.5 14.3125 -1.117188 9.5 -6.359375 Z M 24.59375 -34.359375 C 22.289062 -32.085938 21.140625 -29.179688 21.140625 -25.640625 C 21.140625 -22.097656 22.238281 -19.207031 24.4375 -16.96875 C 26.644531 -14.738281 29.550781 -13.625 33.15625 -13.625 C 36.625 -13.625 39.476562 -14.757812 41.71875 -17.03125 C 43.957031 -19.300781 45.078125 -22.171875 45.078125 -25.640625 C 45.078125 -29.179688 43.921875 -32.085938 41.609375 -34.359375 C 39.304688 -36.628906 36.488281 -37.765625 33.15625 -37.765625 C 29.75 -37.765625 26.894531 -36.628906 24.59375 -34.359375 Z M 24.59375 -34.359375 "/></g></g><g style="fill:#4255ff;fill-opacity:1;"><g transform="translate(523.157629, 89.518202)"><path style="stroke:none" d="M 57.984375 -23.234375 L 20.734375 -23.234375 C 20.734375 -19.628906 21.898438 -16.957031 24.234375 -15.21875 C 26.578125 -13.488281 29.113281 -12.625 31.84375 -12.625 C 34.71875 -12.625 36.988281 -13.003906 38.65625 -13.765625 C 40.332031 -14.535156 42.238281 -16.054688 44.375 -18.328125 L 57.1875 -11.921875 C 51.84375 -2.972656 42.960938 1.5 30.546875 1.5 C 22.796875 1.5 16.148438 -1.148438 10.609375 -6.453125 C 5.066406 -11.765625 2.296875 -18.160156 2.296875 -25.640625 C 2.296875 -33.117188 5.066406 -39.523438 10.609375 -44.859375 C 16.148438 -50.203125 22.796875 -52.875 30.546875 -52.875 C 38.691406 -52.875 45.316406 -50.519531 50.421875 -45.8125 C 55.535156 -41.113281 58.09375 -34.390625 58.09375 -25.640625 C 58.09375 -24.441406 58.054688 -23.640625 57.984375 -23.234375 Z M 21.234375 -33.046875 L 40.765625 -33.046875 C 40.359375 -35.722656 39.304688 -37.773438 37.609375 -39.203125 C 35.910156 -40.640625 33.722656 -41.359375 31.046875 -41.359375 C 28.109375 -41.359375 25.769531 -40.585938 24.03125 -39.046875 C 22.300781 -37.515625 21.367188 -35.515625 21.234375 -33.046875 Z M 21.234375 -33.046875 "/></g></g><g style="fill:#4255ff;fill-opacity:1;"><g transform="translate(583.542945, 89.518202)"><path style="stroke:none" d="M 33.359375 -38.359375 C 30.015625 -38.359375 27.140625 -37.125 24.734375 -34.65625 C 22.335938 -32.1875 21.140625 -29.210938 21.140625 -25.734375 C 21.140625 -22.203125 22.335938 -19.195312 24.734375 -16.71875 C 27.140625 -14.25 30.015625 -13.015625 33.359375 -13.015625 C 34.953125 -13.015625 36.46875 -13.210938 37.90625 -13.609375 C 39.34375 -14.015625 40.394531 -14.421875 41.0625 -14.828125 L 41.96875 -15.421875 L 47.96875 -3.109375 C 47.507812 -2.773438 46.859375 -2.359375 46.015625 -1.859375 C 45.179688 -1.359375 43.28125 -0.675781 40.3125 0.1875 C 37.34375 1.0625 34.15625 1.5 30.75 1.5 C 23.207031 1.5 16.578125 -1.148438 10.859375 -6.453125 C 5.148438 -11.765625 2.296875 -18.128906 2.296875 -25.546875 C 2.296875 -33.015625 5.148438 -39.4375 10.859375 -44.8125 C 16.578125 -50.1875 23.207031 -52.875 30.75 -52.875 C 34.15625 -52.875 37.289062 -52.472656 40.15625 -51.671875 C 43.03125 -50.878906 45.066406 -50.082031 46.265625 -49.28125 L 47.96875 -48.078125 L 41.96875 -35.953125 C 39.757812 -37.554688 36.890625 -38.359375 33.359375 -38.359375 Z M 33.359375 -38.359375 "/></g></g><g style="fill:#4255ff;fill-opacity:1;"><g transform="translate(632.712453, 89.518202)"><path style="stroke:none" d="M 64.703125 -51.375 L 40.265625 -26.84375 L 67.109375 0 L 44.265625 0 L 23.734375 -20.53125 L 23.734375 0 L 6.015625 0 L 6.015625 -86.140625 L 23.734375 -86.140625 L 23.734375 -33.453125 L 41.671875 -51.375 Z M 64.703125 -51.375 "/></g></g><g style="fill:#4255ff;fill-opacity:1;"><g transform="translate(697.403875, 89.518202)"><path style="stroke:none" d="M 17.421875 -21.4375 C 20.628906 -21.4375 23.347656 -20.316406 25.578125 -18.078125 C 27.816406 -15.835938 28.9375 -13.117188 28.9375 -9.921875 C 28.9375 -6.773438 27.816406 -4.082031 25.578125 -1.84375 C 23.347656 0.382812 20.628906 1.5 17.421875 1.5 C 14.285156 1.5 11.597656 0.382812 9.359375 -1.84375 C 7.128906 -4.082031 6.015625 -6.773438 6.015625 -9.921875 C 6.015625 -13.117188 7.128906 -15.835938 9.359375 -18.078125 C 11.597656 -20.316406 14.285156 -21.4375 17.421875 -21.4375 Z M 17.421875 -21.4375 "/></g></g></g></g><g transform="matrix(1,0,0,1,173,-0.000000000000007527)"><g clip-path="url(#445323386f)"><g style="fill:#4255ff;fill-opacity:1;"><g transform="translate(2.63211, 134.040909)"><path style="stroke:none" d="M 77 -98.703125 L 78.71875 -97.5 C 77.226562 -95.769531 75.675781 -94.617188 74.0625 -94.046875 C 72.457031 -93.472656 70.796875 -93.1875 69.078125 -93.1875 C 67.578125 -93.1875 66.109375 -93.269531 64.671875 -93.4375 C 63.242188 -93.613281 61.78125 -93.703125 60.28125 -93.703125 C 59.9375 -91.523438 59.648438 -89.375 59.421875 -87.25 C 59.191406 -85.125 58.90625 -82.96875 58.5625 -80.78125 C 57.070312 -71.019531 55.460938 -61.890625 53.734375 -53.390625 C 52.015625 -44.898438 49.835938 -35.890625 47.203125 -26.359375 C 46.273438 -23.140625 44.976562 -20.09375 43.3125 -17.21875 C 41.65625 -14.351562 39.503906 -11.828125 36.859375 -9.640625 C 33.992188 -7.234375 30.894531 -5.28125 27.5625 -3.78125 C 24.226562 -2.289062 20.722656 -1.546875 17.046875 -1.546875 C 16.703125 -1.546875 16.328125 -1.570312 15.921875 -1.625 C 15.523438 -1.6875 15.15625 -1.71875 14.8125 -1.71875 C 14.46875 -1.832031 14.007812 -1.890625 13.4375 -1.890625 C 9.988281 -1.890625 7.375 -2.578125 5.59375 -3.953125 C 3.8125 -5.335938 2.347656 -7.640625 1.203125 -10.859375 C -0.285156 -15.441406 -0.226562 -19.769531 1.375 -23.84375 C 2.988281 -27.925781 6.4375 -31.0625 11.71875 -33.25 C 10.90625 -31.75 10.097656 -30.335938 9.296875 -29.015625 C 8.492188 -27.703125 7.804688 -26.351562 7.234375 -24.96875 C 5.859375 -21.988281 5.457031 -19.117188 6.03125 -16.359375 C 6.601562 -13.609375 7.804688 -10.910156 9.640625 -8.265625 C 10.679688 -6.660156 12.234375 -5.859375 14.296875 -5.859375 C 17.171875 -5.859375 19.753906 -7.035156 22.046875 -9.390625 C 24.347656 -11.742188 26.128906 -14.007812 27.390625 -16.1875 C 29.910156 -20.78125 32.175781 -26.4375 34.1875 -33.15625 C 36.195312 -39.875 37.945312 -46.992188 39.4375 -54.515625 C 40.9375 -62.035156 42.171875 -69.296875 43.140625 -76.296875 C 44.117188 -83.304688 44.78125 -89.394531 45.125 -94.5625 C 43.519531 -93.988281 41.96875 -93.441406 40.46875 -92.921875 C 38.976562 -92.410156 37.601562 -91.753906 36.34375 -90.953125 C 35.195312 -90.265625 34.046875 -89.457031 32.890625 -88.53125 C 31.742188 -87.613281 30.484375 -86.8125 29.109375 -86.125 C 29.679688 -88.539062 31.054688 -90.40625 33.234375 -91.71875 C 35.421875 -93.039062 37.609375 -94.160156 39.796875 -95.078125 C 41.972656 -95.992188 43.546875 -96.65625 44.515625 -97.0625 C 45.492188 -97.46875 46.1875 -98.070312 46.59375 -98.875 C 47 -99.675781 47.488281 -101.109375 48.0625 -103.171875 C 49.320312 -107.648438 51.757812 -111.726562 55.375 -115.40625 C 58.988281 -119.082031 63.269531 -120.921875 68.21875 -120.921875 C 69.820312 -120.921875 71.597656 -120.632812 73.546875 -120.0625 C 74.117188 -119.945312 74.609375 -119.6875 75.015625 -119.28125 C 75.421875 -118.882812 75.796875 -118.507812 76.140625 -118.15625 C 76.253906 -118.039062 76.253906 -117.78125 76.140625 -117.375 C 76.023438 -116.976562 75.910156 -116.609375 75.796875 -116.265625 C 74.867188 -116.265625 74.40625 -116.265625 74.40625 -116.265625 C 73.601562 -116.835938 72.769531 -117.207031 71.90625 -117.375 C 71.050781 -117.550781 70.28125 -117.640625 69.59375 -117.640625 C 66.832031 -117.640625 64.992188 -115.804688 64.078125 -112.140625 C 63.503906 -109.722656 62.988281 -107.28125 62.53125 -104.8125 C 62.070312 -102.34375 61.550781 -99.90625 60.96875 -97.5 C 62.125 -96.914062 63.242188 -96.507812 64.328125 -96.28125 C 65.421875 -96.050781 66.484375 -95.9375 67.515625 -95.9375 C 70.160156 -95.9375 72.375 -96.425781 74.15625 -97.40625 C 75.9375 -98.382812 76.882812 -98.816406 77 -98.703125 Z M 77 -98.703125 "/></g></g></g></g></g></svg>